HIERARCHY
ROOT Hips
{
 OFFSET 0.000000 0.000000 0.000000
 CHANNELS 6 Xposition Yposition Zposition Yrotation Xrotation Zrotation
 JOINT Chest
 {
  OFFSET 0.000000 9.588913 -0.003946
  CHANNELS 3 Yrotation Xrotation Zrotation
  JOINT Chest2
  {
   OFFSET 0.000000 9.541882 0.008053
   CHANNELS 3 Yrotation Xrotation Zrotation
   JOINT Chest3
   {
    OFFSET 0.000000 9.501360 0.000000
    CHANNELS 3 Yrotation Xrotation Zrotation
    JOINT Chest4
    {
     OFFSET 0.000000 9.491660 0.000000
     CHANNELS 3 Yrotation Xrotation Zrotation
     JOINT Neck
     {
      OFFSET 0.000000 14.331917 0.000000
      CHANNELS 3 Yrotation Xrotation Zrotation
      JOINT Head
      {
       OFFSET 0.000000 8.884799 0.017034
       CHANNELS 3 Yrotation Xrotation Zrotation
       End Site
       {
        OFFSET 0.000000 16.896195 0.008993
       }
      }
     }
     JOINT RightCollar
     {
      OFFSET -2.923010 9.499495 0.000000
      CHANNELS 3 Yrotation Xrotation Zrotation
      JOINT RightShoulder
      {
       OFFSET -13.795216 0.000000 0.000000
       CHANNELS 3 Yrotation Xrotation Zrotation
       JOINT RightElbow
       {
        OFFSET -30.272209 0.000000 0.000000
        CHANNELS 3 Yrotation Xrotation Zrotation
        JOINT RightWrist
        {
         OFFSET -24.478199 0.000000 0.000000
         CHANNELS 3 Yrotation Xrotation Zrotation
         End Site
         {
          OFFSET -18.090752 0.000000 0.000000
         }
        }
       }
      }
     }
     JOINT LeftCollar
     {
      OFFSET 2.923010 9.499495 0.000000
      CHANNELS 3 Yrotation Xrotation Zrotation
      JOINT LeftShoulder
      {
       OFFSET 13.795216 0.000000 0.000000
       CHANNELS 3 Yrotation Xrotation Zrotation
       JOINT LeftElbow
       {
        OFFSET 30.272209 0.000000 0.000000
        CHANNELS 3 Yrotation Xrotation Zrotation
        JOINT LeftWrist
        {
         OFFSET 24.478199 0.000000 0.000000
         CHANNELS 3 Yrotation Xrotation Zrotation
         End Site
         {
          OFFSET 18.090752 0.000000 0.000000
         }
        }
       }
      }
     }
    }
   }
  }
 }
 JOINT RightHip
 {
  OFFSET -7.826875 0.019532 0.001973
  CHANNELS 3 Yrotation Xrotation Zrotation
  JOINT RightKnee
  {
   OFFSET 0.000000 -40.546152 -0.001885
   CHANNELS 3 Yrotation Xrotation Zrotation
   JOINT RightAnkle
   {
    OFFSET 0.000000 -39.417092 -0.003189
    CHANNELS 3 Yrotation Xrotation Zrotation
    JOINT RightToe
    {
     OFFSET 0.000000 -7.579396 17.243563
     CHANNELS 3 Yrotation Xrotation Zrotation
     End Site
     {
      OFFSET 0.000000 -1.500329 6.694466
     }
    }
   }
  }
 }
 JOINT LeftHip
 {
  OFFSET 7.826875 0.019532 0.001973
  CHANNELS 3 Yrotation Xrotation Zrotation
  JOINT LeftKnee
  {
   OFFSET 0.000000 -40.546152 -0.001885
   CHANNELS 3 Yrotation Xrotation Zrotation
   JOINT LeftAnkle
   {
    OFFSET 0.000000 -39.417092 -0.003189
    CHANNELS 3 Yrotation Xrotation Zrotation
    JOINT LeftToe
    {
     OFFSET 0.000000 -7.579396 17.243563
     CHANNELS 3 Yrotation Xrotation Zrotation
     End Site
     {
      OFFSET 0.000000 -1.500329 6.694466
     }
    }
   }
  }
 }
}
MOTION
Frames: 5
Frame Time: 0.008333
-10.189201 50.699971 -15.713678 22.764253 -30.192948 -6.848734 5.588038 16.580706 2.523089 3.094579 9.529333 1.138350 3.911956 11.900770 1.509917 3.094579 9.529333 1.138350 2.346792 14.991571 -3.981880 3.417025 -9.882697 -4.783790 9.901020 -10.982611 -15.117711 4.222569 -37.463891 47.409312 102.749518 -18.741267 16.815170 5.063068 -6.999100 -17.892895 17.047160 -3.789789 -1.514698 -3.914567 -5.250491 -83.079167 -69.274257 6.387687 -53.120155 -0.408632 8.332012 33.165461 -20.369116 -46.514992 25.483736 -126.315761 67.166908 -137.313257 -16.031725 -22.039135 11.230050 -0.206289 0.268305 -0.086381 20.223826 -59.808870 12.038329 151.989633 69.056914 170.811865 -4.441676 -24.035779 -2.406687 0.050677 -0.163960 0.027119
-10.188460 50.699702 -15.711520 22.771282 -30.168557 -6.865950 5.592833 16.585715 2.513417 3.097470 9.535061 1.131766 3.915445 11.907977 1.501794 3.097471 9.535062 1.131766 2.340459 14.982127 -3.985669 3.411146 -9.892758 -4.786359 9.941875 -11.005375 -15.153575 4.283143 -37.518298 47.367714 102.698705 -18.658970 16.756216 5.089998 -7.002030 -17.885688 17.037088 -3.808780 -1.516330 -3.909518 -5.248914 -83.047249 -69.311922 6.355603 -53.162747 -0.407965 8.339252 33.195591 -20.388954 -46.532279 25.501846 -126.334054 67.170205 -137.326427 -16.035677 -22.042301 11.230735 -0.200922 0.267614 -0.083846 20.217824 -59.838458 12.041647 152.016445 69.059010 170.847726 -4.440496 -24.038991 -2.406236 0.050885 -0.164068 0.025487
-10.187093 50.699623 -15.709265 22.781285 -30.146416 -6.878823 5.591869 16.594149 2.498069 3.098079 9.540560 1.125458 3.916076 11.914902 1.493954 3.098080 9.540560 1.125459 2.335952 14.973627 -3.992481 3.408005 -9.901644 -4.792712 10.000867 -11.024881 -15.200548 4.336367 -37.563041 47.327737 102.663621 -18.550903 16.679553 5.118876 -6.997945 -17.867927 17.040022 -3.823583 -1.522898 -3.914468 -5.248482 -83.014706 -69.347101 6.322160 -53.196691 -0.409054 8.347399 33.218290 -20.403115 -46.550086 25.514504 -126.346179 67.172558 -137.332061 -16.060539 -22.038442 11.244986 -0.210139 0.266224 -0.087930 20.218754 -59.862595 12.033401 152.042385 69.061439 170.883981 -4.438936 -24.042480 -2.407269 0.052698 -0.164317 0.024844
-10.186449 50.699549 -15.706829 22.787910 -30.124538 -6.891780 5.590922 16.604018 2.482808 3.098018 9.546052 1.119332 3.915870 11.921821 1.486323 3.098018 9.546053 1.119332 2.332257 14.964690 -4.000741 3.406109 -9.910912 -4.800863 10.073299 -11.043146 -15.254472 4.392883 -37.592978 47.282549 102.647986 -18.404416 16.572926 5.149349 -6.985758 -17.843512 17.045172 -3.839216 -1.531281 -3.913185 -5.246792 -82.985755 -69.380843 6.289985 -53.229536 -0.409301 8.355220 33.240335 -20.415522 -46.568328 25.531623 -126.353029 67.173365 -137.334202 -16.082949 -22.031029 11.262405 -0.221691 0.263194 -0.093892 20.216922 -59.887520 12.033467 152.069938 69.063755 170.918940 -4.437646 -24.046945 -2.407115 0.056241 -0.163653 0.024691
-10.187462 50.699562 -15.703780 22.788126 -30.103765 -6.909673 5.594882 16.614760 2.473754 3.098557 9.552031 1.113239 3.916422 11.929345 1.478755 3.098557 9.552032 1.113239 2.327809 14.953637 -4.008251 3.403215 -9.922474 -4.808004 10.153450 -11.060187 -15.310123 4.463317 -37.603572 47.224986 102.652647 -18.222485 16.429699 5.181244 -6.965309 -17.826888 17.045672 -3.858734 -1.539597 -3.898560 -5.243747 -82.960674 -69.414280 6.259345 -53.265704 -0.406637 8.361917 33.262711 -20.428845 -46.582718 25.559103 -126.358760 67.174444 -137.337684 -16.088145 -22.026264 11.272589 -0.223610 0.260052 -0.096047 20.203192 -59.915688 12.056240 152.105459 69.065004 170.958738 -4.434224 -24.052965 -2.406763 0.060681 -0.162254 0.025201
